<mxfile host="Electron" agent="Mozilla/5.0 (Windows NT 10.0; Win64; x64) AppleWebKit/537.36 (KHTML, like Gecko) draw.io/26.1.1 Chrome/132.0.6834.210 Electron/34.3.3 Safari/537.36" version="26.1.1">
  <diagram name="Page-1" id="e3a06f82-3646-2815-327d-82caf3d4e204">
    <mxGraphModel dx="2298" dy="1242" grid="1" gridSize="10" guides="1" tooltips="1" connect="1" arrows="1" fold="1" page="1" pageScale="1.5" pageWidth="1169" pageHeight="826" background="none" math="0" shadow="0">
      <root>
        <mxCell id="0" style=";html=1;" />
        <mxCell id="1" style=";html=1;" parent="0" />
        <mxCell id="6a7d8f32e03d9370-61" value="&lt;b style=&quot;font-size: 18px;&quot;&gt;Clúster de Kubernetes&lt;/b&gt;" style="whiteSpace=wrap;html=1;fillColor=#f8cecc;fontSize=14;strokeColor=none;verticalAlign=top;" parent="1" vertex="1">
          <mxGeometry x="866.5" y="210" width="493" height="726" as="geometry" />
        </mxCell>
        <mxCell id="6a7d8f32e03d9370-60" value="" style="whiteSpace=wrap;html=1;fillColor=#d5e8d4;fontSize=14;strokeColor=none;verticalAlign=top;" parent="1" vertex="1">
          <mxGeometry x="896.5" y="450" width="399.5" height="430" as="geometry" />
        </mxCell>
        <mxCell id="6a7d8f32e03d9370-59" value="" style="whiteSpace=wrap;html=1;fillColor=#EDEDED;fontSize=14;strokeColor=none;verticalAlign=top;" parent="1" vertex="1">
          <mxGeometry x="1450" y="340" width="150" height="401" as="geometry" />
        </mxCell>
        <mxCell id="-gNcL-1J6Vz2lFdQg6ia-16" style="edgeStyle=orthogonalEdgeStyle;rounded=0;orthogonalLoop=1;jettySize=auto;html=1;" edge="1" parent="1" source="-gNcL-1J6Vz2lFdQg6ia-1" target="-gNcL-1J6Vz2lFdQg6ia-3">
          <mxGeometry relative="1" as="geometry" />
        </mxCell>
        <mxCell id="-gNcL-1J6Vz2lFdQg6ia-1" value="" style="verticalLabelPosition=bottom;aspect=fixed;html=1;verticalAlign=top;strokeColor=none;shape=mxgraph.citrix.xenapp_server;fillColor=#66B2FF;gradientColor=#0066CC;fontSize=14;" vertex="1" parent="1">
          <mxGeometry x="1480" y="474.5" width="76" height="89" as="geometry" />
        </mxCell>
        <mxCell id="-gNcL-1J6Vz2lFdQg6ia-3" value="" style="verticalLabelPosition=bottom;aspect=fixed;html=1;verticalAlign=top;strokeColor=none;shape=mxgraph.citrix.xenapp_server;fillColor=#66B2FF;gradientColor=#0066CC;fontSize=14;" vertex="1" parent="1">
          <mxGeometry x="1090.5" y="284.25" width="76" height="89" as="geometry" />
        </mxCell>
        <mxCell id="-gNcL-1J6Vz2lFdQg6ia-12" style="edgeStyle=orthogonalEdgeStyle;rounded=0;orthogonalLoop=1;jettySize=auto;html=1;entryX=0.452;entryY=0.485;entryDx=0;entryDy=0;entryPerimeter=0;" edge="1" parent="1" source="-gNcL-1J6Vz2lFdQg6ia-4" target="-gNcL-1J6Vz2lFdQg6ia-10">
          <mxGeometry relative="1" as="geometry">
            <mxPoint x="631" y="523.25" as="targetPoint" />
          </mxGeometry>
        </mxCell>
        <mxCell id="-gNcL-1J6Vz2lFdQg6ia-4" value="&lt;font style=&quot;font-size: 18px;&quot;&gt;&lt;b&gt;Clientes&lt;/b&gt;&lt;/font&gt;" style="whiteSpace=wrap;html=1;fillColor=#dae8fc;fontSize=14;strokeColor=none;verticalAlign=top;" vertex="1" parent="1">
          <mxGeometry x="130" y="364.25" width="310" height="318" as="geometry" />
        </mxCell>
        <mxCell id="-gNcL-1J6Vz2lFdQg6ia-5" value="&lt;font style=&quot;font-size: 18px;&quot;&gt;Client&lt;/font&gt;" style="verticalLabelPosition=bottom;aspect=fixed;html=1;verticalAlign=top;strokeColor=none;shape=mxgraph.citrix.laptop_2;fillColor=#66B2FF;gradientColor=#0066CC;fontSize=14;" vertex="1" parent="1">
          <mxGeometry x="289.9999999999999" y="483" width="116" height="86.5" as="geometry" />
        </mxCell>
        <mxCell id="-gNcL-1J6Vz2lFdQg6ia-7" value="" style="verticalLabelPosition=bottom;aspect=fixed;html=1;verticalAlign=top;strokeColor=none;shape=mxgraph.citrix.home_office;fillColor=#66B2FF;gradientColor=#0066CC;fontSize=14;" vertex="1" parent="1">
          <mxGeometry x="160" y="456.25" width="80" height="55.5" as="geometry" />
        </mxCell>
        <mxCell id="-gNcL-1J6Vz2lFdQg6ia-14" style="edgeStyle=orthogonalEdgeStyle;rounded=0;orthogonalLoop=1;jettySize=auto;html=1;" edge="1" parent="1" source="-gNcL-1J6Vz2lFdQg6ia-8" target="-gNcL-1J6Vz2lFdQg6ia-9">
          <mxGeometry relative="1" as="geometry" />
        </mxCell>
        <mxCell id="-gNcL-1J6Vz2lFdQg6ia-8" value="" style="verticalLabelPosition=bottom;aspect=fixed;html=1;verticalAlign=top;strokeColor=none;shape=mxgraph.citrix.firewall;fillColor=#66B2FF;gradientColor=#0066CC;fontSize=14;" vertex="1" parent="1">
          <mxGeometry x="839" y="479.75" width="75" height="93" as="geometry" />
        </mxCell>
        <mxCell id="-gNcL-1J6Vz2lFdQg6ia-9" value="" style="verticalLabelPosition=top;aspect=fixed;html=1;verticalAlign=bottom;strokeColor=none;shape=mxgraph.citrix.cache_server;fillColor=#66B2FF;gradientColor=#0066CC;fontSize=14;labelPosition=center;align=center;" vertex="1" parent="1">
          <mxGeometry x="1090.5" y="548" width="71" height="97.5" as="geometry" />
        </mxCell>
        <mxCell id="-gNcL-1J6Vz2lFdQg6ia-10" value="&lt;font style=&quot;font-size: 18px;&quot;&gt;WWW&lt;/font&gt;" style="verticalLabelPosition=bottom;aspect=fixed;html=1;verticalAlign=top;strokeColor=none;shape=mxgraph.citrix.web_service;fillColor=#66B2FF;gradientColor=#0066CC;fontSize=14;" vertex="1" parent="1">
          <mxGeometry x="613.5" y="474.5" width="63" height="60" as="geometry" />
        </mxCell>
        <mxCell id="-gNcL-1J6Vz2lFdQg6ia-13" style="edgeStyle=orthogonalEdgeStyle;rounded=0;orthogonalLoop=1;jettySize=auto;html=1;entryX=0.338;entryY=0.647;entryDx=0;entryDy=0;entryPerimeter=0;" edge="1" parent="1" source="-gNcL-1J6Vz2lFdQg6ia-10" target="-gNcL-1J6Vz2lFdQg6ia-8">
          <mxGeometry relative="1" as="geometry" />
        </mxCell>
        <mxCell id="-gNcL-1J6Vz2lFdQg6ia-15" style="edgeStyle=orthogonalEdgeStyle;rounded=0;orthogonalLoop=1;jettySize=auto;html=1;entryX=0.217;entryY=0.075;entryDx=0;entryDy=0;entryPerimeter=0;" edge="1" parent="1" source="-gNcL-1J6Vz2lFdQg6ia-3" target="-gNcL-1J6Vz2lFdQg6ia-9">
          <mxGeometry relative="1" as="geometry" />
        </mxCell>
        <mxCell id="-gNcL-1J6Vz2lFdQg6ia-20" style="edgeStyle=orthogonalEdgeStyle;rounded=0;orthogonalLoop=1;jettySize=auto;html=1;entryX=0.77;entryY=0.525;entryDx=0;entryDy=0;entryPerimeter=0;" edge="1" parent="1" source="-gNcL-1J6Vz2lFdQg6ia-1" target="-gNcL-1J6Vz2lFdQg6ia-9">
          <mxGeometry relative="1" as="geometry" />
        </mxCell>
        <mxCell id="-gNcL-1J6Vz2lFdQg6ia-22" value="&lt;font style=&quot;font-size: 18px;&quot;&gt;Web Service&lt;/font&gt;" style="text;html=1;align=center;verticalAlign=middle;whiteSpace=wrap;rounded=0;" vertex="1" parent="1">
          <mxGeometry x="1023" y="558" width="60" height="30" as="geometry" />
        </mxCell>
        <mxCell id="-gNcL-1J6Vz2lFdQg6ia-24" value="&lt;b&gt;&lt;font style=&quot;font-size: 18px;&quot;&gt;Nodo Ansible&lt;/font&gt;&lt;/b&gt;" style="text;html=1;align=center;verticalAlign=middle;whiteSpace=wrap;rounded=0;" vertex="1" parent="1">
          <mxGeometry x="1488" y="398.25" width="60" height="30" as="geometry" />
        </mxCell>
        <mxCell id="-gNcL-1J6Vz2lFdQg6ia-26" value="&lt;b&gt;&lt;font style=&quot;font-size: 18px;&quot;&gt;Nodo Master&lt;/font&gt;&lt;/b&gt;" style="text;html=1;align=center;verticalAlign=middle;whiteSpace=wrap;rounded=0;" vertex="1" parent="1">
          <mxGeometry x="1020" y="283.75" width="60" height="30" as="geometry" />
        </mxCell>
        <mxCell id="-gNcL-1J6Vz2lFdQg6ia-27" value="&lt;b&gt;&lt;font style=&quot;font-size: 18px;&quot;&gt;Nodo Worker&lt;/font&gt;&lt;/b&gt;" style="text;html=1;align=center;verticalAlign=middle;whiteSpace=wrap;rounded=0;" vertex="1" parent="1">
          <mxGeometry x="1160" y="548" width="60" height="30" as="geometry" />
        </mxCell>
        <mxCell id="-gNcL-1J6Vz2lFdQg6ia-30" value="&lt;b&gt;&lt;font style=&quot;font-size: 18px;&quot;&gt;WORKERS&lt;/font&gt;&lt;/b&gt;" style="text;html=1;align=center;verticalAlign=middle;whiteSpace=wrap;rounded=0;" vertex="1" parent="1">
          <mxGeometry x="930" y="830" width="60" height="30" as="geometry" />
        </mxCell>
        <mxCell id="-gNcL-1J6Vz2lFdQg6ia-31" value="&lt;font style=&quot;font-size: 18px;&quot;&gt;192.169.1.12&lt;/font&gt;" style="text;html=1;align=center;verticalAlign=middle;whiteSpace=wrap;rounded=0;" vertex="1" parent="1">
          <mxGeometry x="1190" y="368.25" width="60" height="30" as="geometry" />
        </mxCell>
        <mxCell id="-gNcL-1J6Vz2lFdQg6ia-32" value="&lt;font style=&quot;font-size: 18px;&quot;&gt;192.169.1.11&lt;/font&gt;" style="text;html=1;align=center;verticalAlign=middle;whiteSpace=wrap;rounded=0;" vertex="1" parent="1">
          <mxGeometry x="1488" y="576" width="60" height="30" as="geometry" />
        </mxCell>
        <mxCell id="-gNcL-1J6Vz2lFdQg6ia-33" value="&lt;font style=&quot;font-size: 18px;&quot;&gt;192.169.1.13&lt;/font&gt;" style="text;html=1;align=center;verticalAlign=middle;whiteSpace=wrap;rounded=0;" vertex="1" parent="1">
          <mxGeometry x="1083" y="650" width="60" height="30" as="geometry" />
        </mxCell>
        <mxCell id="-gNcL-1J6Vz2lFdQg6ia-34" value="&lt;font style=&quot;font-size: 18px;&quot;&gt;192.169.1.20&lt;/font&gt;" style="text;html=1;align=center;verticalAlign=middle;whiteSpace=wrap;rounded=0;" vertex="1" parent="1">
          <mxGeometry x="318" y="596.25" width="60" height="30" as="geometry" />
        </mxCell>
        <mxCell id="-gNcL-1J6Vz2lFdQg6ia-35" value="&lt;b&gt;&lt;font style=&quot;font-size: 36px;&quot;&gt;Diagrama de Topología&lt;/font&gt;&lt;/b&gt;" style="text;html=1;align=center;verticalAlign=middle;whiteSpace=wrap;rounded=0;" vertex="1" parent="1">
          <mxGeometry x="420" y="50" width="860" height="90" as="geometry" />
        </mxCell>
        <mxCell id="-gNcL-1J6Vz2lFdQg6ia-37" value="&lt;font style=&quot;font-size: 18px;&quot;&gt;Firewall&lt;/font&gt;" style="text;html=1;align=center;verticalAlign=middle;whiteSpace=wrap;rounded=0;" vertex="1" parent="1">
          <mxGeometry x="837" y="573" width="60" height="30" as="geometry" />
        </mxCell>
      </root>
    </mxGraphModel>
  </diagram>
</mxfile>
